# xmcd
#
# Track frame offsets: 
#        150
#        18372
#        47510
#
# Disc length: 1021 seconds
#
# Revision: 3
# Processed by: cddbd v1.5.2PL0 Copyright (c) Steve Scherf et al.
# Submitted via: ExactAudioCopy v0.99pb5
#
DISCID=1803fb03
DTITLE=Airscape - Amazon Chant (Single)
DYEAR=1998
DGENRE=Electronic
TTITLE0=Amazon Chant (Radio Edit)
TTITLE1=Amazon Chant (Never Ending Original Mix)
TTITLE2=Amazon Chant (Heliotropic Remix)
EXTD=YEAR: 1998
EXTT0=
EXTT1=
EXTT2=
PLAYORDER=
